<?xml version="1.0" encoding="UTF-8"?>
<svg xmlns="http://www.w3.org/2000/svg"
     version="1.1"
     viewBox="0 0 1536 865">
  <path id="Neimenovano"
        fill="blue"
        stroke="black"
        stroke-width="1"
        d="M 663.43,332.94M 343.68,755.59
           C 216.63,616.35 388.57,500.41 515.69,655.59
             573.78,502.73 726.17,654.14 768.85,778.65
             878.87,528.75 1006.27,575.97 1020.08,657.04
             1144.36,503.36 1324.77,607.59 1192.37,754.62
             1455.49,652.46 1506.63,482.95 1464.10,370.60
             1431.71,259.79 1218.75,153.31 1078.29,121.24
             1158.08,205.30 1101.20,333.35 985.37,340.14
             970.23,346.11 884.34,326.40 880.22,299.51
             880.22,299.51 852.08,87.91 852.08,87.91
             852.08,87.91 806.22,168.62 806.22,168.62
             806.22,168.62 729.78,169.29 729.78,169.29
             729.78,169.29 685.34,85.27 685.34,85.27
             678.68,72.09 673.45,301.06 640.75,320.27
             599.86,347.07 533.57,344.63 484.53,320.61
             430.22,285.06 392.13,207.97 457.84,119.80
             457.84,119.80 457.29,119.99 457.29,119.99
             -174.05,308.43 69.11,646.30 343.68,755.59 Z" />
</svg>