<?xml version="1.0" encoding="UTF-8" standalone="no"?>
<svg xmlns="http://www.w3.org/2000/svg"
     xmlns:svg="http://www.w3.org/2000/svg"
     version="1.1"
     width="53.3333in" height="30in"
     viewBox="0 0 3840 2160">
  <path id="Izbor"
        fill="none" stroke="black" stroke-width="1"
        d="M 136.00,1176.00
           C 136.00,1176.00 137.80,1162.00 137.80,1162.00
             141.96,1140.28 150.13,1119.08 156.65,1098.00
             156.65,1098.00 158.90,1089.00 158.90,1089.00
             158.90,1089.00 176.40,1044.00 176.40,1044.00
             176.40,1044.00 181.23,1030.00 181.23,1030.00
             181.23,1030.00 195.12,1000.00 195.12,1000.00
             195.12,1000.00 201.79,984.00 201.79,984.00
             201.79,984.00 215.74,957.00 215.74,957.00
             215.74,957.00 222.03,943.28 222.03,943.28
             222.03,943.28 238.84,914.00 238.84,914.00
             238.84,914.00 244.73,902.09 244.73,902.09
             244.73,902.09 261.19,876.00 261.19,876.00
             261.19,876.00 266.07,867.00 266.07,867.00
             266.07,867.00 279.67,847.00 279.67,847.00
             279.67,847.00 286.32,836.00 286.32,836.00
             286.32,836.00 302.62,813.72 302.62,813.72
             302.62,813.72 311.87,800.00 311.87,800.00
             311.87,800.00 321.62,788.00 321.62,788.00
             321.62,788.00 329.04,777.00 329.04,777.00
             329.04,777.00 342.40,761.00 342.40,761.00
             369.74,726.64 399.14,694.02 430.75,663.62
             430.75,663.62 464.00,631.17 464.00,631.17
             464.00,631.17 510.00,591.75 510.00,591.75
             510.00,591.75 518.17,584.49 518.17,584.49
             518.17,584.49 528.00,577.40 528.00,577.40
             528.00,577.40 543.00,564.90 543.00,564.90
             543.00,564.90 553.99,557.61 553.99,557.61
             553.99,557.61 565.00,548.63 565.00,548.63
             565.00,548.63 587.00,533.28 587.00,533.28
             587.00,533.28 604.00,521.05 604.00,521.05
             604.00,521.05 616.00,514.00 616.00,514.00
             616.00,514.00 626.04,506.69 626.04,506.69
             626.04,506.69 657.00,487.80 657.00,487.80
             657.00,487.80 670.00,479.40 670.00,479.40
             670.00,479.40 681.00,473.73 681.00,473.73
             681.00,473.73 710.00,456.69 710.00,456.69
             710.00,456.69 719.00,452.68 719.00,452.68
             719.00,452.68 751.00,435.37 751.00,435.37
             751.00,435.37 764.00,429.74 764.00,429.74
             764.00,429.74 795.00,413.90 795.00,413.90
             795.00,413.90 809.00,408.63 809.00,408.63
             809.00,408.63 843.00,393.01 843.00,393.01
             843.00,393.01 853.00,389.66 853.00,389.66
             853.00,389.66 899.00,370.95 899.00,370.95
             899.00,370.95 908.00,368.56 908.00,368.56
             908.00,368.56 960.00,349.90 960.00,349.90
             960.00,349.90 969.00,347.65 969.00,347.65
             969.00,347.65 1027.00,329.43 1027.00,329.43
             1027.00,329.43 1039.00,326.96 1039.00,326.96
             1039.00,326.96 1102.00,310.35 1102.00,310.35
             1108.75,308.75 1123.61,304.19 1130.00,306.00
             1122.12,311.47 1097.25,333.07 1090.04,340.09
             1090.04,340.09 1083.83,346.83 1083.83,346.83
             1083.83,346.83 1074.04,356.00 1074.04,356.00
             1074.04,356.00 1064.59,366.91 1064.59,366.91
             1050.48,382.70 1043.60,390.81 1030.99,408.00
             1030.99,408.00 1024.87,416.00 1024.87,416.00
             1024.87,416.00 1017.60,428.99 1017.60,428.99
             1017.60,428.99 1007.26,446.00 1007.26,446.00
             1007.26,446.00 995.66,473.00 995.66,473.00
             988.19,492.01 984.44,507.35 982.82,527.72
             982.82,527.72 982.04,538.00 982.04,538.00
             982.04,538.00 982.91,546.00 982.91,546.00
             984.59,570.07 989.94,584.62 1000.63,606.00
             1000.63,606.00 1005.07,615.00 1005.07,615.00
             1005.07,615.00 1018.42,633.00 1018.42,633.00
             1018.42,633.00 1025.21,642.00 1025.21,642.00
             1025.21,642.00 1048.04,664.64 1048.04,664.64
             1048.04,664.64 1062.00,675.46 1062.00,675.46
             1062.00,675.46 1073.00,684.41 1073.00,684.41
             1073.00,684.41 1082.91,690.37 1082.91,690.37
             1082.91,690.37 1109.00,707.37 1109.00,707.37
             1109.00,707.37 1117.00,711.04 1117.00,711.04
             1117.00,711.04 1150.00,728.21 1150.00,728.21
             1150.00,728.21 1162.00,732.86 1162.00,732.86
             1162.00,732.86 1199.00,748.80 1199.00,748.80
             1199.00,748.80 1211.00,752.44 1211.00,752.44
             1211.00,752.44 1260.00,769.57 1260.00,769.57
             1260.00,769.57 1274.00,772.78 1274.00,772.78
             1274.00,772.78 1345.00,792.63 1345.00,792.63
             1345.00,792.63 1358.00,794.75 1358.00,794.75
             1358.00,794.75 1431.00,810.61 1431.00,810.61
             1431.00,810.61 1451.00,814.56 1451.00,814.56
             1451.00,814.56 1461.00,815.44 1461.00,815.44
             1461.00,815.44 1492.00,820.92 1492.00,820.92
             1492.00,820.92 1575.00,833.72 1575.00,833.72
             1575.00,833.72 1593.00,836.04 1593.00,836.04
             1593.00,836.04 1602.00,836.04 1602.00,836.04
             1602.00,836.04 1627.00,839.28 1627.00,839.28
             1627.00,839.28 1688.00,846.17 1688.00,846.17
             1688.00,846.17 1705.00,848.00 1705.00,848.00
             1705.00,848.00 1708.40,831.00 1708.40,831.00
             1708.40,831.00 1718.39,782.00 1718.39,782.00
             1718.39,782.00 1719.46,772.00 1719.46,772.00
             1719.46,772.00 1739.20,676.00 1739.20,676.00
             1739.20,676.00 1740.80,664.00 1740.80,664.00
             1740.80,664.00 1760.20,569.00 1760.20,569.00
             1760.20,569.00 1762.20,555.00 1762.20,555.00
             1762.20,555.00 1773.00,502.00 1773.00,502.00
             1773.00,502.00 1779.00,472.00 1779.00,472.00
             1782.22,474.49 1783.68,481.10 1785.19,485.00
             1785.19,485.00 1797.43,515.00 1797.43,515.00
             1797.43,515.00 1801.64,525.00 1801.64,525.00
             1801.64,525.00 1804.67,535.00 1804.67,535.00
             1804.67,535.00 1822.00,577.00 1822.00,577.00
             1822.00,577.00 1829.60,598.00 1829.60,598.00
             1829.60,598.00 1843.80,632.00 1843.80,632.00
             1843.80,632.00 1846.95,642.00 1846.95,642.00
             1846.95,642.00 1857.23,667.00 1857.23,667.00
             1862.80,679.25 1860.93,680.98 1872.00,681.16
             1872.00,681.16 1974.00,681.16 1974.00,681.16
             1974.00,681.16 1994.65,681.16 1994.65,681.16
             2003.93,681.18 2003.28,675.92 2006.45,668.00
             2006.45,668.00 2021.73,626.00 2021.73,626.00
             2021.73,626.00 2033.77,595.00 2033.77,595.00
             2033.77,595.00 2036.62,585.00 2036.62,585.00
             2036.62,585.00 2052.05,545.00 2052.05,545.00
             2052.05,545.00 2056.38,534.00 2056.38,534.00
             2056.38,534.00 2072.19,491.00 2072.19,491.00
             2074.10,486.07 2077.07,475.64 2080.00,472.00
             2080.00,472.00 2085.60,501.00 2085.60,501.00
             2085.60,501.00 2098.39,566.00 2098.39,566.00
             2098.39,566.00 2099.46,577.00 2099.46,577.00
             2099.46,577.00 2118.58,674.00 2118.58,674.00
             2118.58,674.00 2121.08,692.00 2121.08,692.00
             2121.08,692.00 2127.45,725.00 2127.45,725.00
             2127.45,725.00 2136.45,771.00 2136.45,771.00
             2136.45,771.00 2140.56,792.00 2140.56,792.00
             2140.56,792.00 2141.61,802.00 2141.61,802.00
             2141.61,802.00 2150.00,848.00 2150.00,848.00
             2150.00,848.00 2170.00,848.00 2170.00,848.00
             2170.00,848.00 2183.53,847.27 2183.53,847.27
             2183.53,847.27 2218.00,846.00 2218.00,846.00
             2218.00,846.00 2242.17,844.15 2242.17,844.15
             2242.17,844.15 2276.00,841.83 2276.00,841.83
             2276.00,841.83 2339.00,836.00 2339.00,836.00
             2339.00,836.00 2377.00,831.27 2377.00,831.27
             2377.00,831.27 2438.00,821.42 2438.00,821.42
             2438.00,821.42 2470.00,815.44 2470.00,815.44
             2470.00,815.44 2487.00,812.79 2487.00,812.79
             2487.00,812.79 2555.00,795.88 2555.00,795.88
             2555.00,795.88 2570.00,792.57 2570.00,792.57
             2570.00,792.57 2628.00,773.10 2628.00,773.10
             2628.00,773.10 2640.00,769.58 2640.00,769.58
             2640.00,769.58 2673.00,755.42 2673.00,755.42
             2673.00,755.42 2689.00,748.88 2689.00,748.88
             2689.00,748.88 2727.00,728.97 2727.00,728.97
             2727.00,728.97 2755.00,710.59 2755.00,710.59
             2755.00,710.59 2764.00,704.85 2764.00,704.85
             2764.00,704.85 2779.01,692.26 2779.01,692.26
             2779.01,692.26 2790.96,682.83 2790.96,682.83
             2790.96,682.83 2799.04,674.00 2799.04,674.00
             2799.04,674.00 2812.12,660.99 2812.12,660.99
             2812.12,660.99 2820.13,650.00 2820.13,650.00
             2820.13,650.00 2833.30,632.00 2833.30,632.00
             2841.54,618.99 2852.16,594.02 2856.12,579.00
             2858.82,568.76 2857.29,570.94 2858.43,563.00
             2859.57,555.02 2860.99,547.08 2861.00,539.00
             2861.06,502.21 2857.50,476.65 2844.42,442.00
             2844.42,442.00 2833.02,413.00 2833.02,413.00
             2833.02,413.00 2824.74,396.00 2824.74,396.00
             2824.74,396.00 2817.90,384.00 2817.90,384.00
             2817.90,384.00 2813.95,375.00 2813.95,375.00
             2813.95,375.00 2796.17,346.83 2796.17,346.83
             2796.17,346.83 2789.25,335.00 2789.25,335.00
             2789.25,335.00 2778.86,321.00 2778.86,321.00
             2778.86,321.00 2768.00,305.00 2768.00,305.00
             2783.10,306.22 2817.37,317.73 2833.00,323.00
             2833.00,323.00 2844.00,326.96 2844.00,326.96
             2844.00,326.96 2854.00,329.36 2854.00,329.36
             2854.00,329.36 2905.00,348.05 2905.00,348.05
             2905.00,348.05 2913.00,350.23 2913.00,350.23
             2913.00,350.23 2947.00,363.99 2947.00,363.99
             2947.00,363.99 2968.00,371.86 2968.00,371.86
             2968.00,371.86 3008.00,389.54 3008.00,389.54
             3008.00,389.54 3022.00,394.86 3022.00,394.86
             3022.00,394.86 3045.00,405.81 3045.00,405.81
             3045.00,405.81 3053.00,410.10 3053.00,410.10
             3053.00,410.10 3062.00,413.34 3062.00,413.34
             3062.00,413.34 3075.00,420.22 3075.00,420.22
             3075.00,420.22 3086.00,425.26 3086.00,425.26
             3086.00,425.26 3098.00,431.74 3098.00,431.74
             3098.00,431.74 3107.00,435.52 3107.00,435.52
             3107.00,435.52 3136.00,451.69 3136.00,451.69
             3136.00,451.69 3150.00,458.34 3150.00,458.34
             3150.00,458.34 3177.00,474.38 3177.00,474.38
             3177.00,474.38 3185.00,478.24 3185.00,478.24
             3185.00,478.24 3202.00,488.80 3202.00,488.80
             3202.00,488.80 3233.00,507.44 3233.00,507.44
             3233.00,507.44 3242.00,513.77 3242.00,513.77
             3242.00,513.77 3254.00,520.71 3254.00,520.71
             3254.00,520.71 3268.00,530.67 3268.00,530.67
             3268.00,530.67 3296.00,549.43 3296.00,549.43
             3296.00,549.43 3307.00,557.95 3307.00,557.95
             3307.00,557.95 3317.00,564.39 3317.00,564.39
             3317.00,564.39 3335.00,578.56 3335.00,578.56
             3335.00,578.56 3342.72,583.82 3342.72,583.82
             3366.03,601.68 3388.65,620.83 3410.09,640.82
             3410.09,640.82 3424.91,653.28 3424.91,653.28
             3424.91,653.28 3434.00,662.91 3434.00,662.91
             3434.00,662.91 3444.96,672.09 3444.96,672.09
             3444.96,672.09 3455.00,682.99 3455.00,682.99
             3455.00,682.99 3464.71,692.04 3464.71,692.04
             3464.71,692.04 3473.09,702.00 3473.09,702.00
             3473.09,702.00 3487.90,717.00 3487.90,717.00
             3487.90,717.00 3494.21,725.00 3494.21,725.00
             3494.21,725.00 3505.57,737.00 3505.57,737.00
             3505.57,737.00 3514.20,748.00 3514.20,748.00
             3514.20,748.00 3552.46,796.00 3552.46,796.00
             3552.46,796.00 3561.66,809.99 3561.66,809.99
             3561.66,809.99 3570.67,822.00 3570.67,822.00
             3570.67,822.00 3577.74,833.83 3577.74,833.83
             3577.74,833.83 3594.88,860.00 3594.88,860.00
             3594.88,860.00 3600.00,870.00 3600.00,870.00
             3600.00,870.00 3616.31,898.00 3616.31,898.00
             3616.31,898.00 3624.26,915.00 3624.26,915.00
             3624.26,915.00 3632.74,931.00 3632.74,931.00
             3632.74,931.00 3640.34,949.00 3640.34,949.00
             3640.34,949.00 3658.56,992.00 3658.56,992.00
             3658.56,992.00 3661.09,1001.00 3661.09,1001.00
             3661.09,1001.00 3667.67,1020.00 3667.67,1020.00
             3667.67,1020.00 3679.58,1057.00 3679.58,1057.00
             3679.58,1057.00 3682.01,1070.00 3682.01,1070.00
             3688.93,1096.43 3700.80,1149.77 3702.00,1176.00
             3702.00,1176.00 3691.00,1174.54 3691.00,1174.54
             3691.00,1174.54 3677.00,1171.01 3677.00,1171.01
             3677.00,1171.01 3614.00,1157.80 3614.00,1157.80
             3614.00,1157.80 3594.00,1154.29 3594.00,1154.29
             3594.00,1154.29 3584.00,1153.57 3584.00,1153.57
             3584.00,1153.57 3551.00,1148.13 3551.00,1148.13
             3512.40,1142.71 3473.86,1137.57 3435.00,1134.91
             3435.00,1134.91 3409.00,1133.00 3409.00,1133.00
             3409.00,1133.00 3393.00,1132.00 3393.00,1132.00
             3393.00,1132.00 3356.00,1132.00 3356.00,1132.00
             3356.00,1132.00 3278.00,1132.00 3278.00,1132.00
             3278.00,1132.00 3266.00,1132.91 3266.00,1132.91
             3266.00,1132.91 3213.00,1137.85 3213.00,1137.85
             3185.29,1141.16 3158.13,1146.84 3131.00,1153.26
             3131.00,1153.26 3116.00,1156.43 3116.00,1156.43
             3116.00,1156.43 3067.00,1173.66 3067.00,1173.66
             3067.00,1173.66 3052.00,1179.03 3052.00,1179.03
             3052.00,1179.03 3031.00,1189.31 3031.00,1189.31
             3031.00,1189.31 3023.00,1194.09 3023.00,1194.09
             3023.00,1194.09 3014.00,1198.24 3014.00,1198.24
             3014.00,1198.24 2991.00,1213.58 2991.00,1213.58
             2962.98,1233.40 2938.37,1257.01 2919.69,1286.00
             2905.03,1308.77 2896.89,1326.33 2888.33,1352.00
             2888.33,1352.00 2881.42,1376.00 2881.42,1376.00
             2878.97,1387.13 2874.02,1426.90 2874.00,1438.00
             2874.00,1438.00 2874.00,1472.00 2874.00,1472.00
             2865.82,1469.95 2859.77,1463.75 2853.00,1459.04
             2853.00,1459.04 2842.00,1452.22 2842.00,1452.22
             2842.00,1452.22 2807.00,1432.44 2807.00,1432.44
             2807.00,1432.44 2795.00,1427.49 2795.00,1427.49
             2795.00,1427.49 2768.00,1414.43 2768.00,1414.43
             2751.96,1407.57 2702.89,1390.92 2686.00,1386.90
             2686.00,1386.90 2674.00,1385.11 2674.00,1385.11
             2641.18,1377.72 2607.67,1372.29 2574.00,1372.00
             2574.00,1372.00 2538.00,1372.00 2538.00,1372.00
             2538.00,1372.00 2528.00,1372.91 2528.00,1372.91
             2499.43,1374.87 2474.94,1379.00 2447.00,1385.12
             2447.00,1385.12 2437.00,1386.75 2437.00,1386.75
             2437.00,1386.75 2390.00,1401.66 2390.00,1401.66
             2390.00,1401.66 2360.00,1412.42 2360.00,1412.42
             2360.00,1412.42 2328.00,1427.62 2328.00,1427.62
             2328.00,1427.62 2317.00,1432.26 2317.00,1432.26
             2317.00,1432.26 2290.00,1447.91 2290.00,1447.91
             2290.00,1447.91 2273.00,1457.44 2273.00,1457.44
             2273.00,1457.44 2257.00,1468.29 2257.00,1468.29
             2257.00,1468.29 2249.00,1472.83 2249.00,1472.83
             2249.00,1472.83 2239.00,1480.29 2239.00,1480.29
             2239.00,1480.29 2214.00,1498.42 2214.00,1498.42
             2214.00,1498.42 2199.96,1510.19 2199.96,1510.19
             2199.96,1510.19 2188.01,1519.08 2188.01,1519.08
             2188.01,1519.08 2174.00,1531.91 2174.00,1531.91
             2174.00,1531.91 2166.04,1538.11 2166.04,1538.11
             2166.04,1538.11 2152.00,1551.95 2152.00,1551.95
             2152.00,1551.95 2143.17,1559.13 2143.17,1559.13
             2143.17,1559.13 2135.99,1567.00 2135.99,1567.00
             2135.99,1567.00 2122.17,1580.09 2122.17,1580.09
             2122.17,1580.09 2109.72,1593.96 2109.72,1593.96
             2109.72,1593.96 2101.26,1602.04 2101.26,1602.04
             2101.26,1602.04 2095.88,1609.00 2095.88,1609.00
             2095.88,1609.00 2082.30,1623.04 2082.30,1623.04
             2082.30,1623.04 2073.74,1634.00 2073.74,1634.00
             2073.74,1634.00 2062.08,1647.00 2062.08,1647.00
             2062.08,1647.00 2053.96,1657.96 2053.96,1657.96
             2053.96,1657.96 2042.00,1672.00 2042.00,1672.00
             2042.00,1672.00 2023.13,1697.00 2023.13,1697.00
             2023.13,1697.00 2015.80,1706.17 2015.80,1706.17
             2015.80,1706.17 2010.83,1714.00 2010.83,1714.00
             2010.83,1714.00 1996.44,1733.00 1996.44,1733.00
             1996.44,1733.00 1991.16,1742.00 1991.16,1742.00
             1991.16,1742.00 1984.35,1751.00 1984.35,1751.00
             1984.35,1751.00 1962.19,1784.96 1962.19,1784.96
             1962.19,1784.96 1955.81,1794.01 1955.81,1794.01
             1955.81,1794.01 1948.61,1807.00 1948.61,1807.00
             1939.78,1821.16 1929.83,1834.68 1923.00,1850.00
             1923.00,1850.00 1921.00,1850.00 1921.00,1850.00
             1921.00,1850.00 1898.77,1814.00 1898.77,1814.00
             1898.77,1814.00 1890.23,1802.00 1890.23,1802.00
             1890.23,1802.00 1884.95,1793.00 1884.95,1793.00
             1884.95,1793.00 1878.04,1784.00 1878.04,1784.00
             1878.04,1784.00 1853.71,1750.04 1853.71,1750.04
             1853.71,1750.04 1847.82,1742.91 1847.82,1742.91
             1847.82,1742.91 1842.56,1735.00 1842.56,1735.00
             1842.56,1735.00 1829.21,1719.00 1829.21,1719.00
             1829.21,1719.00 1820.57,1707.09 1820.57,1707.09
             1820.57,1707.09 1812.41,1698.00 1812.41,1698.00
             1812.41,1698.00 1801.42,1684.28 1801.42,1684.28
             1801.42,1684.28 1784.16,1665.00 1784.16,1665.00
             1765.37,1643.96 1746.43,1622.62 1726.04,1603.09
             1726.04,1603.09 1718.53,1596.57 1718.53,1596.57
             1718.53,1596.57 1705.17,1583.32 1705.17,1583.32
             1705.17,1583.32 1653.83,1538.24 1653.83,1538.24
             1653.83,1538.24 1645.00,1531.96 1645.00,1531.96
             1645.00,1531.96 1629.00,1518.89 1629.00,1518.89
             1629.00,1518.89 1617.04,1510.83 1617.04,1510.83
             1617.04,1510.83 1608.96,1504.34 1608.96,1504.34
             1608.96,1504.34 1577.00,1483.00 1577.00,1483.00
             1577.00,1483.00 1564.00,1474.07 1564.00,1474.07
             1564.00,1474.07 1553.00,1468.37 1553.00,1468.37
             1553.00,1468.37 1525.00,1451.69 1525.00,1451.69
             1525.00,1451.69 1514.00,1446.75 1514.00,1446.75
             1514.00,1446.75 1483.00,1431.18 1483.00,1431.18
             1483.00,1431.18 1472.00,1427.27 1472.00,1427.27
             1472.00,1427.27 1439.00,1413.69 1439.00,1413.69
             1422.89,1407.85 1384.11,1397.42 1367.00,1394.00
             1352.52,1391.10 1328.26,1386.07 1314.00,1386.00
             1314.00,1386.00 1270.01,1384.16 1270.01,1384.16
             1270.01,1384.16 1246.00,1385.00 1246.00,1385.00
             1246.00,1385.00 1232.00,1386.00 1232.00,1386.00
             1195.15,1386.43 1159.13,1396.78 1124.00,1406.96
             1124.00,1406.96 1112.00,1410.00 1112.00,1410.00
             1112.00,1410.00 1047.00,1436.37 1047.00,1436.37
             1047.00,1436.37 1001.00,1460.00 1001.00,1460.00
             1001.00,1426.52 993.62,1397.21 982.08,1366.00
             982.08,1366.00 975.68,1349.00 975.68,1349.00
             975.68,1349.00 960.95,1322.00 960.95,1322.00
             960.95,1322.00 953.00,1308.00 953.00,1308.00
             953.00,1308.00 934.55,1283.17 934.55,1283.17
             934.55,1283.17 923.17,1271.00 923.17,1271.00
             923.17,1271.00 914.83,1261.17 914.83,1261.17
             914.83,1261.17 902.96,1250.82 902.96,1250.82
             902.96,1250.82 893.00,1241.21 893.00,1241.21
             893.00,1241.21 884.00,1234.76 884.00,1234.76
             884.00,1234.76 869.00,1223.04 869.00,1223.04
             869.00,1223.04 856.00,1215.19 856.00,1215.19
             856.00,1215.19 829.00,1198.35 829.00,1198.35
             829.00,1198.35 817.00,1193.24 817.00,1193.24
             817.00,1193.24 780.00,1176.24 780.00,1176.24
             780.00,1176.24 772.00,1174.05 772.00,1174.05
             772.00,1174.05 721.00,1157.38 721.00,1157.38
             721.00,1157.38 698.00,1152.58 698.00,1152.58
             640.32,1139.93 583.99,1133.52 525.00,1133.00
             525.00,1133.00 484.00,1133.00 484.00,1133.00
             434.83,1133.06 377.95,1138.18 329.00,1144.28
             329.00,1144.28 264.00,1153.58 264.00,1153.58
             264.00,1153.58 253.00,1154.43 253.00,1154.43
             253.00,1154.43 169.00,1170.00 169.00,1170.00
             169.00,1170.00 148.00,1174.39 148.00,1174.39
             148.00,1174.39 136.00,1176.00 136.00,1176.00 Z" />
</svg>
